<svg width="486" height="483" viewBox="0 0 486 483" fill="none" xmlns="http://www.w3.org/2000/svg">
<mask id="mask0_2_96" style="mask-type:luminance" maskUnits="userSpaceOnUse" x="0" y="28" width="462" height="455">
<path d="M35.7002 218.896C84.5842 190.296 113.996 144.962 123.935 82.893C133.874 20.8244 161.257 11.3925 206.084 54.5971C250.912 97.8017 304.563 114.84 367.037 105.712C429.511 96.5846 461.154 120.317 461.965 176.909C462.777 233.501 449.389 280.356 421.803 317.476C394.217 354.595 368.457 396.481 344.522 443.134C320.587 489.787 287.22 495.264 244.421 459.564C201.622 423.865 169.675 395.264 148.58 373.763C127.485 352.263 91.1765 328.226 39.6555 301.654C-11.8655 275.082 -13.1839 247.496 35.7002 218.896Z" fill="white"/>
</mask>
<g mask="url(#mask0_2_96)">
<path d="M35.7002 218.896C84.5842 190.296 113.996 144.962 123.935 82.893C133.874 20.8244 161.257 11.3925 206.084 54.5971C250.912 97.8017 304.563 114.84 367.037 105.712C429.511 96.5846 461.154 120.317 461.965 176.909C462.777 233.501 449.389 280.356 421.803 317.476C394.217 354.595 368.457 396.481 344.522 443.134C320.587 489.787 287.22 495.264 244.421 459.564C201.622 423.865 169.675 395.264 148.58 373.763C127.485 352.263 91.1765 328.226 39.6555 301.654C-11.8655 275.082 -13.1839 247.496 35.7002 218.896Z" fill="#C59C7C"/>
</g>
<mask id="mask1_2_96" style="mask-type:luminance" maskUnits="userSpaceOnUse" x="5" y="0" width="481" height="322">
<path d="M42.1684 135.162C93.0628 114.912 123.684 82.8133 134.032 38.8664C144.38 -5.08056 172.889 -11.7588 219.56 18.8317C266.231 49.4223 322.088 61.4861 387.131 55.0233C452.175 48.5606 485.119 65.3638 485.964 105.433C486.809 145.502 472.871 178.678 444.15 204.96C415.43 231.242 388.61 260.899 363.69 293.931C338.771 326.963 304.032 330.841 259.473 305.564C214.914 280.287 181.653 260.037 159.69 244.814C137.727 229.59 99.9262 212.572 46.2864 193.758C-7.35341 174.944 -8.72609 155.412 42.1684 135.162Z" fill="white"/>
</mask>
<g mask="url(#mask1_2_96)">
<path d="M42.1684 135.162C93.0628 114.912 123.684 82.8133 134.032 38.8664C144.38 -5.08056 172.889 -11.7588 219.56 18.8317C266.231 49.4223 322.088 61.4861 387.131 55.0233C452.175 48.5606 485.119 65.3638 485.964 105.433C486.809 145.502 472.871 178.678 444.15 204.96C415.43 231.242 388.61 260.899 363.69 293.931C338.771 326.963 304.032 330.841 259.473 305.564C214.914 280.287 181.653 260.037 159.69 244.814C137.727 229.59 99.9262 212.572 46.2864 193.758C-7.35341 174.944 -8.72609 155.412 42.1684 135.162Z" stroke="#351000" stroke-width="8"/>
</g>
</svg>
