<svg width="410" height="388" viewBox="0 0 410 388" fill="none" xmlns="http://www.w3.org/2000/svg">
<mask id="mask0_2_133" style="mask-type:luminance" maskUnits="userSpaceOnUse" x="29" y="14" width="381" height="374">
<path d="M53.2672 177.418C74.4572 146.274 95.6472 110.779 116.837 70.9332C138.027 31.0872 172.909 12.1565 221.483 14.1412C270.057 16.1259 313.252 30.5529 351.068 57.4222C388.884 84.2915 406.977 118.794 405.347 160.93C403.717 203.066 404.858 245.966 408.77 289.628C412.682 333.291 392.226 360.924 347.401 372.526C302.576 384.129 261.337 388.938 223.684 386.953C186.031 384.969 146.34 377.793 104.612 365.427C62.8842 353.061 38.5972 326.421 31.7512 285.506C24.9052 244.592 32.0772 208.562 53.2672 177.418Z" fill="white"/>
</mask>
<g mask="url(#mask0_2_133)">
<path d="M53.2672 177.418C74.4572 146.274 95.6472 110.779 116.837 70.9332C138.027 31.0872 172.909 12.1565 221.483 14.1412C270.057 16.1259 313.252 30.5529 351.068 57.4222C388.884 84.2915 406.977 118.794 405.347 160.93C403.717 203.066 404.858 245.966 408.77 289.628C412.682 333.291 392.226 360.924 347.401 372.526C302.576 384.129 261.337 388.938 223.684 386.953C186.031 384.969 146.34 377.793 104.612 365.427C62.8842 353.061 38.5972 326.421 31.7512 285.506C24.9052 244.592 32.0772 208.562 53.2672 177.418Z" fill="#C59C7C"/>
</g>
<mask id="mask1_2_133" style="mask-type:luminance" maskUnits="userSpaceOnUse" x="206" y="132" width="115" height="93">
<path d="M309.295 187.65C295.858 193.701 287.738 202.177 284.935 213.077C282.132 223.978 275.88 227.404 266.181 223.355C256.481 219.306 244.802 217.304 231.143 217.349C217.483 217.393 209.364 210.942 206.783 197.994C204.202 185.047 208.852 175.481 220.731 169.296C232.611 163.112 240.086 154.658 243.156 143.935C246.226 133.213 252.499 130.12 261.976 134.659C271.453 139.197 279.907 143.49 287.337 147.539C294.768 151.588 303.644 157.773 313.966 166.093C324.289 174.413 322.731 181.599 309.295 187.65Z" fill="white"/>
</mask>
<g mask="url(#mask1_2_133)">
<path d="M309.295 187.65C295.858 193.701 287.738 202.177 284.935 213.077C282.132 223.978 275.88 227.404 266.181 223.355C256.481 219.306 244.802 217.304 231.143 217.349C217.483 217.393 209.364 210.942 206.783 197.994C204.202 185.047 208.852 175.481 220.731 169.296C232.611 163.112 240.086 154.658 243.156 143.935C246.226 133.213 252.499 130.12 261.976 134.659C271.453 139.197 279.907 143.49 287.337 147.539C294.768 151.588 303.644 157.773 313.966 166.093C324.289 174.413 322.731 181.599 309.295 187.65Z" stroke="#FEE0BC" stroke-width="8"/>
</g>
<mask id="mask2_2_133" style="mask-type:luminance" maskUnits="userSpaceOnUse" x="105" y="96" width="228" height="205">
<path d="M308.072 240.006C287.566 259.498 269.257 275.892 253.145 289.187C237.033 302.482 220.076 303.665 202.274 292.736C184.472 281.807 165.544 275.272 145.488 273.131C125.433 270.991 116.419 260.062 118.447 240.344C120.475 220.627 117.152 198.487 108.476 173.925C99.8004 149.363 108.589 137.758 134.841 139.11C161.093 140.462 184.754 131.955 205.823 113.59C226.893 95.2244 251.568 91.6753 279.848 102.942C308.128 114.209 325.029 134.997 330.55 165.306C336.071 195.614 328.578 220.514 308.072 240.006Z" fill="white"/>
</mask>
<g mask="url(#mask2_2_133)">
<path d="M308.072 240.006C287.566 259.498 269.257 275.892 253.145 289.187C237.033 302.482 220.076 303.665 202.274 292.736C184.472 281.807 165.544 275.272 145.488 273.131C125.433 270.991 116.419 260.062 118.447 240.344C120.475 220.627 117.152 198.487 108.476 173.925C99.8004 149.363 108.589 137.758 134.841 139.11C161.093 140.462 184.754 131.955 205.823 113.59C226.893 95.2244 251.568 91.6753 279.848 102.942C308.128 114.209 325.029 134.997 330.55 165.306C336.071 195.614 328.578 220.514 308.072 240.006Z" stroke="#FEE0BC" stroke-width="8"/>
</g>
<mask id="mask3_2_133" style="mask-type:luminance" maskUnits="userSpaceOnUse" x="0" y="0" width="409" height="365">
<path d="M381.402 217.275C343.91 243.295 318.08 278.721 303.912 323.551C289.745 368.382 262.273 376.846 221.498 348.945C180.723 321.043 134.592 307.641 83.105 308.738C31.6179 309.836 4.14661 288.361 0.691102 244.314C-2.76441 200.267 6.73824 162.412 29.1991 130.749C51.6599 99.0852 74.8982 65.9326 98.914 31.2908C122.93 -3.3509 154.634 -9.22903 194.027 13.6565C233.42 36.542 264.174 57.3113 286.289 75.9646C308.404 94.6178 339.158 116.328 378.551 141.094C417.944 165.861 418.894 191.254 381.402 217.275Z" fill="white"/>
</mask>
<g mask="url(#mask3_2_133)">
<path d="M381.402 217.275C343.91 243.295 318.08 278.721 303.912 323.551C289.745 368.382 262.273 376.846 221.498 348.945C180.723 321.043 134.592 307.641 83.105 308.738C31.6179 309.836 4.14661 288.361 0.691102 244.314C-2.76441 200.267 6.73824 162.412 29.1991 130.749C51.6599 99.0852 74.8982 65.9326 98.914 31.2908C122.93 -3.3509 154.634 -9.22903 194.027 13.6565C233.42 36.542 264.174 57.3113 286.289 75.9646C308.404 94.6178 339.158 116.328 378.551 141.094C417.944 165.861 418.894 191.254 381.402 217.275Z" stroke="#FEE0BC" stroke-width="8"/>
</g>
</svg>
