<svg width="374" height="314" viewBox="0 0 374 314" fill="none" xmlns="http://www.w3.org/2000/svg">
<mask id="mask0_2_160" style="mask-type:luminance" maskUnits="userSpaceOnUse" x="46" y="38" width="231" height="194">
<path d="M261.988 155.975C241.285 172.66 225.691 191.704 215.209 213.106C204.726 234.508 189.569 237.522 169.739 222.147C149.909 206.773 134.578 194.368 123.746 184.933C112.914 175.499 95.8792 164.142 72.6423 150.864C49.4054 137.586 41.3686 118.455 48.5318 93.4708C55.6951 68.4867 71.2446 52.5441 95.1804 45.6429C119.116 38.7417 141.043 36.5141 160.96 38.9601C180.877 41.4061 196.776 49.574 208.657 63.4637C220.537 77.3534 237.572 92.0731 259.761 107.623C281.949 123.172 282.692 139.289 261.988 155.975Z" fill="white"/>
</mask>
<g mask="url(#mask0_2_160)">
<path d="M261.988 155.975C241.285 172.66 225.691 191.704 215.209 213.106C204.726 234.508 189.569 237.522 169.739 222.147C149.909 206.773 134.578 194.368 123.746 184.933C112.914 175.499 95.8792 164.142 72.6423 150.864C49.4054 137.586 41.3686 118.455 48.5318 93.4708C55.6951 68.4867 71.2446 52.5441 95.1804 45.6429C119.116 38.7417 141.043 36.5141 160.96 38.9601C180.877 41.4061 196.776 49.574 208.657 63.4637C220.537 77.3534 237.572 92.0731 259.761 107.623C281.949 123.172 282.692 139.289 261.988 155.975Z" stroke="#351000" stroke-width="8"/>
</g>
<mask id="mask1_2_160" style="mask-type:luminance" maskUnits="userSpaceOnUse" x="0" y="0" width="374" height="314">
<path d="M349.728 191.024C316.205 218.041 290.956 248.877 273.983 283.532C257.009 318.186 232.468 323.066 200.359 298.171C168.25 273.277 143.426 253.191 125.886 237.914C108.347 222.638 80.7645 204.25 43.1392 182.75C5.51404 161.25 -7.49919 130.272 4.09956 89.8183C15.6983 49.3641 40.8761 23.5498 79.6329 12.3754C118.39 1.20099 153.893 -2.40594 186.143 1.55461C218.394 5.51516 244.137 18.7406 263.374 41.2308C282.611 63.7211 310.193 87.5551 346.121 112.733C382.049 137.911 383.251 164.008 349.728 191.024Z" fill="white"/>
</mask>
<g mask="url(#mask1_2_160)">
<path d="M349.728 191.024C316.205 218.041 290.956 248.877 273.983 283.532C257.009 318.186 232.468 323.066 200.359 298.171C168.25 273.277 143.426 253.191 125.886 237.914C108.347 222.638 80.7645 204.25 43.1392 182.75C5.51404 161.25 -7.49919 130.272 4.09956 89.8183C15.6983 49.3641 40.8761 23.5498 79.6329 12.3754C118.39 1.20099 153.893 -2.40594 186.143 1.55461C218.394 5.51516 244.137 18.7406 263.374 41.2308C282.611 63.7211 310.193 87.5551 346.121 112.733C382.049 137.911 383.251 164.008 349.728 191.024Z" stroke="#351000" stroke-width="8"/>
</g>
<mask id="mask2_2_160" style="mask-type:luminance" maskUnits="userSpaceOnUse" x="92" y="70" width="154" height="130">
<path d="M235.985 148.646C222.184 159.769 211.789 172.464 204.8 186.732C197.812 200.999 187.708 203.009 174.489 192.759C161.27 182.51 151.049 174.24 143.828 167.951C136.607 161.662 125.251 154.091 109.761 145.239C94.2702 136.388 88.9125 123.634 93.6878 106.979C98.4631 90.3235 108.829 79.6956 124.785 75.095C140.742 70.4945 155.359 69.0095 168.636 70.64C181.914 72.2706 192.513 77.7156 200.433 86.975C208.353 96.2344 219.709 106.047 234.5 116.413C249.292 126.779 249.787 137.523 235.985 148.646Z" fill="white"/>
</mask>
<g mask="url(#mask2_2_160)">
<path d="M235.985 148.646C222.184 159.769 211.789 172.464 204.8 186.732C197.812 200.999 187.708 203.009 174.489 192.759C161.27 182.51 151.049 174.24 143.828 167.951C136.607 161.662 125.251 154.091 109.761 145.239C94.2702 136.388 88.9125 123.634 93.6878 106.979C98.4631 90.3235 108.829 79.6956 124.785 75.095C140.742 70.4945 155.359 69.0095 168.636 70.64C181.914 72.2706 192.513 77.7156 200.433 86.975C208.353 96.2344 219.709 106.047 234.5 116.413C249.292 126.779 249.787 137.523 235.985 148.646Z" stroke="#351000" stroke-width="8"/>
</g>
</svg>
